# xmcd
#
# Track frame offsets:
#	150
#	3173
#	46533
#	52108
#	94032
#	107129
#	142650
#	199090
#	204299
#
# Disc length: 3081 seconds
#
# Revision: 1
# Processed by: cddbd v1.5.2PL0 Copyright (c) Steve Scherf et al.
# Submitted via: audiograbber 1.83.01
#
DISCID=680c0709
DTITLE=Grateful Dead - 69-04-12 Student Union Ballroom, Salt Lake City Ut
DYEAR=1900
DGENRE=
TTITLE0=Intro
TTITLE1=Morning Dew
TTITLE2=Yellow Dog Story
TTITLE3=Good Morning Little Schoolgirl
TTITLE4=Yellow Dog Story
TTITLE5=Doin' That Rag
TTITLE6=He Was A Friend Of Mine
TTITLE7=Cryptical Envelopment
TTITLE8=Cryptical Envelopment
EXTD=
EXTT0=
EXTT1=
EXTT2=
EXTT3=
EXTT4=
EXTT5=
EXTT6=
EXTT7=
EXTT8=
PLAYORDER=
